<svg enable-background="new 0 0 92.5 92.5" viewBox="0 0 92.5 92.5" xmlns="http://www.w3.org/2000/svg"><circle cx="46.25" cy="46.25" fill="none" r="44.75" stroke="#f7931e" stroke-miterlimit="10" stroke-width="3"/><circle cx="46.25" cy="46.25" fill="#f7931e" r="40.5"/><path d="m70.13 49.87c-.75-.79-1.95-.94-2.88-.38-3.65 2.24-10.85 6.56-10.85 6.56-.9.55-1.92.85-2.97.87l-8.18.03c-.3-.01-.53-.27-.52-.57.01-.26.21-.48.47-.52l8.37-.15c1.08-.04 1.93-.94 1.89-2.02-.03-1.01-.83-1.83-1.83-1.89l-4.95-.37c-2.07-.17-4.12-.6-6.08-1.28-6.29-2.33-10-1.13-12-.5-.46-.7-1.26-1.1-2.1-1.05l-4.33.19c-1.41.02-2.53 1.18-2.5 2.59v.04l.5 9.6c.1 1.41 1.32 2.48 2.73 2.4l4.35-.2c.82-.03 1.55-.49 1.94-1.21.3.27.7.41 1.1.42h.08l18.34 1.22h.71c2.42 0 4.77-.74 6.76-2.12l11.67-8.2c1.03-.71 1.28-2.13.57-3.15-.07-.1-.14-.19-.23-.28zm-43.59 11.32c-.78-.04-1.38-.72-1.34-1.5s.72-1.38 1.5-1.34c.76.04 1.36.68 1.34 1.45-.03.8-.7 1.42-1.5 1.39zm30.3-7c.1-.75-.06-1.51-.46-2.15l6.78-3.5c.81-.45 1.82-.33 2.5.3-3.04 1.83-6.49 3.96-8.82 5.37zm-3.11-3.73-.85-.06 6.4-2.5c.68-.31 1.47-.24 2.08.18l-5.95 2.95c-.49-.34-1.08-.53-1.68-.57zm-2.47-4.84v1.05.5c.05.55-.36 1.03-.91 1.08-.03 0-.06 0-.09 0h-.9-.8c-.57.03-1.05-.41-1.08-.97 0-.04 0-.08 0-.12v-1.13c.01-.18-.01-.36-.04-.53-.16-.05-.33-.09-.5-.1-1.06-.14-2.09-.44-3.06-.88-.89-.43-1.05-.78-.79-1.73.16-.58.31-1.15.5-1.72.09-.3.27-.85.81-.85.24.02.47.09.68.22.99.5 2.07.81 3.17.92.67.09 1.35.01 1.97-.26.46-.17.79-.58.88-1.06.05-.49-.16-.98-.56-1.28-.35-.28-.73-.5-1.15-.67-.35-.15-.69-.29-1.04-.43-.81-.3-1.6-.67-2.36-1.1-2.05-1.23-3-2.82-2.87-4.87.15-2.41 1.46-4.07 3.9-4.96.67-.24.67-.24.67-.91v-.34c0-.21 0-.41 0-.63 0-.9.29-1.17 1.19-1.2h.85c1.56 0 1.68.25 1.68 1.85 0 .76 0 .76.76.88.83.13 1.65.38 2.42.72.54.18.83.76.65 1.29 0 .01-.01.02-.01.04l-.16.55c-.13.47-.26.94-.42 1.4-.11.35-.34 1.17-1.47.63-1.09-.53-2.29-.77-3.5-.69-.29 0-.59.06-.86.17-.38.14-.66.47-.74.87-.03.39.15.77.47 1 .46.35.96.64 1.5.85l.35.15c.89.35 1.77.75 2.61 1.19 1.53.83 2.62 2.29 2.96 4 .3 1.6-.13 3.25-1.17 4.5-.79.98-1.87 1.68-3.09 2-.35.11-.45.23-.45.57z" fill="#fff"/></svg>