<?xml version="1.0" encoding="utf-8"?>
<!-- Generator: Adobe Illustrator 23.0.1, SVG Export Plug-In . SVG Version: 6.00 Build 0)  -->
<svg version="1.1" id="Layer_1" xmlns="http://www.w3.org/2000/svg" xmlns:xlink="http://www.w3.org/1999/xlink" x="0px" y="0px"
	 viewBox="0 0 92.5 92.5" style="enable-background:new 0 0 92.5 92.5;" xml:space="preserve">
<style type="text/css">
	.st0{fill:none;stroke:#F7931E;stroke-width:3;stroke-miterlimit:10;}
	.st1{fill:#F7931E;}
	.st2{fill:#FFFFFF;}
</style>
<circle id="XMLID_223_" class="st0" cx="46.25" cy="46.25" r="44.75"/>
<circle id="XMLID_67_" class="st1" cx="46.25" cy="46.25" r="40.5"/>
<path id="XMLID_95_" class="st2" d="M70.13,49.87c-0.75-0.79-1.95-0.94-2.88-0.38c-3.65,2.24-10.85,6.56-10.85,6.56
	c-0.9,0.55-1.92,0.85-2.97,0.87l-8.18,0.03l0,0c-0.3-0.01-0.53-0.27-0.52-0.57c0.01-0.26,0.21-0.48,0.47-0.52l8.37-0.15
	c1.08-0.04,1.93-0.94,1.89-2.02c-0.03-1.01-0.83-1.83-1.83-1.89l-4.95-0.37c-2.07-0.17-4.12-0.6-6.08-1.28
	c-6.29-2.33-10-1.13-12-0.5c-0.46-0.7-1.26-1.1-2.1-1.05l-4.33,0.19c-1.41,0.02-2.53,1.18-2.5,2.59c0,0.01,0,0.03,0,0.04l0.5,9.6
	c0.1,1.41,1.32,2.48,2.73,2.4l4.35-0.2c0.82-0.03,1.55-0.49,1.94-1.21c0.3,0.27,0.7,0.41,1.1,0.42h0.08l18.34,1.22
	c0.23,0,0.47,0,0.71,0c2.42,0,4.77-0.74,6.76-2.12l11.67-8.2c1.03-0.71,1.28-2.13,0.57-3.15c-0.07-0.1-0.14-0.19-0.23-0.28
	L70.13,49.87z M26.54,61.19c-0.78-0.04-1.38-0.72-1.34-1.5s0.72-1.38,1.5-1.34c0.76,0.04,1.36,0.68,1.34,1.45
	C28.01,60.6,27.34,61.22,26.54,61.19z M56.84,54.19c0.1-0.75-0.06-1.51-0.46-2.15l6.78-3.5c0.81-0.45,1.82-0.33,2.5,0.3
	c-3.04,1.83-6.49,3.96-8.82,5.37L56.84,54.19z M53.73,50.46l-0.85-0.06l6.4-2.5c0.68-0.31,1.47-0.24,2.08,0.18l-5.95,2.95
	C54.92,50.69,54.33,50.5,53.73,50.46z M51.26,45.62c0,0.35,0,0.7,0,1.05c0,0.17,0,0.35,0,0.5c0.05,0.55-0.36,1.03-0.91,1.08
	c-0.03,0-0.06,0-0.09,0h-0.9h-0.8c-0.57,0.03-1.05-0.41-1.08-0.97c0-0.04,0-0.08,0-0.12v-1.13c0.01-0.18-0.01-0.36-0.04-0.53
	c-0.16-0.05-0.33-0.09-0.5-0.1c-1.06-0.14-2.09-0.44-3.06-0.88c-0.89-0.43-1.05-0.78-0.79-1.73c0.16-0.58,0.31-1.15,0.5-1.72
	c0.09-0.3,0.27-0.85,0.81-0.85c0.24,0.02,0.47,0.09,0.68,0.22c0.99,0.5,2.07,0.81,3.17,0.92c0.67,0.09,1.35,0.01,1.97-0.26
	c0.46-0.17,0.79-0.58,0.88-1.06c0.05-0.49-0.16-0.98-0.56-1.28c-0.35-0.28-0.73-0.5-1.15-0.67c-0.35-0.15-0.69-0.29-1.04-0.43
	c-0.81-0.3-1.6-0.67-2.36-1.1c-2.05-1.23-3-2.82-2.87-4.87c0.15-2.41,1.46-4.07,3.9-4.96c0.67-0.24,0.67-0.24,0.67-0.91v-0.34
	c0-0.21,0-0.41,0-0.63c0-0.9,0.29-1.17,1.19-1.2h0.85c1.56,0,1.68,0.25,1.68,1.85c0,0.76,0,0.76,0.76,0.88
	c0.83,0.13,1.65,0.38,2.42,0.72c0.54,0.18,0.83,0.76,0.65,1.29c0,0.01-0.01,0.02-0.01,0.04l-0.16,0.55
	c-0.13,0.47-0.26,0.94-0.42,1.4c-0.11,0.35-0.34,1.17-1.47,0.63c-1.09-0.53-2.29-0.77-3.5-0.69c-0.29,0-0.59,0.06-0.86,0.17
	c-0.38,0.14-0.66,0.47-0.74,0.87c-0.03,0.39,0.15,0.77,0.47,1c0.46,0.35,0.96,0.64,1.5,0.85l0.35,0.15
	c0.89,0.35,1.77,0.75,2.61,1.19c1.53,0.83,2.62,2.29,2.96,4c0.3,1.6-0.13,3.25-1.17,4.5c-0.79,0.98-1.87,1.68-3.09,2
	C51.36,45.16,51.26,45.28,51.26,45.62z"/>
</svg>
