<svg enable-background="new -1098.3 293.4 117.6 117.6" viewBox="-1098.3 293.4 117.6 117.6" xmlns="http://www.w3.org/2000/svg"><path d="m-1065.3 347.4c.1.3.4.5.7.6s.6 0 .9-.3c.5-.5 2-1.6 3.3-2.2l-.5 18.9c0 .3.1.5.3.7s.4.3.7.3h19.6c.3 0 .5-.1.7-.3s.3-.5.3-.7l-.5-18.9c1.4.5 2.8 1.7 3.3 2.2.2.2.6.3.9.3.3-.1.6-.3.7-.6l4-8.7c.2-.4.1-.9-.2-1.1-6.6-6.2-13.2-6.9-13.4-6.9h-.1-.2c-.6 0-1 .4-1 1 0 2.4-2 4.4-4.4 4.4s-4.4-2-4.4-4.4c0-.3-.1-.6-.3-.7s-.5-.3-.8-.3-6.8.8-13.4 6.9c-.3.3-.4.8-.2 1.1zm8.9-14.6c.6 2.9 3.1 5.2 6.2 5.2s5.7-2.3 6.3-5.2c1.8.4 6.3 1.7 11 5.8l-3.1 6.9c-1.1-.8-2.9-2-4.6-2.1-.3 0-.6.1-.8.3s-.3.5-.3.8l.5 19.2h-17.6l.5-19.2c0-.3-.1-.6-.3-.8s-.4-.3-.7-.3h-.1c-1.7.1-3.5 1.3-4.6 2.1l-3.1-6.9c4.4-4 8.8-5.4 10.7-5.8z" fill="#ff9402"/><path d="m-1078.1 382.2h4.4c.5 4.6 4.8 8.3 10.1 8.3s9.6-3.6 10.1-8.3h28.4c.5 4.6 4.8 8.3 10.1 8.3s9.6-3.6 10.1-8.3h5c.6 0 1-.4 1-.9v-28.7c0-9.3-8.4-16.8-18.7-16.8h-2.9v-16.4c0-.5-.4-.9-1-.9h-56.5c-.6 0-1 .4-1 .9v61.9c-.1.5.4.9.9.9zm14.5 6.5c-4.5 0-8.1-3.3-8.1-7.3s3.6-7.3 8.1-7.3 8.1 3.3 8.1 7.3c.1 4-3.6 7.3-8.1 7.3zm48.6 0c-4.5 0-8.1-3.3-8.1-7.3s3.6-7.3 8.1-7.3 8.1 3.3 8.1 7.3-3.6 7.3-8.1 7.3zm-62.1-68.4h54.5v16.4c0 .5.4.9 1 .9h3.9c9.2 0 16.7 6.7 16.7 15v27.8h-4c-.5-4.6-4.8-8.2-10.1-8.2-5.2 0-9.5 3.6-10.1 8.2h-28.4c-.5-4.6-4.8-8.2-10.1-8.2s-9.5 3.6-10.1 8.2h-3.4z" fill="#fff"/><path d="m-1021.6 357.7h15.1c.6 0 1-.4 1-.9v-3.8c0-6.6-6-12-13.4-12h-2.7c-.6 0-1 .4-1 .9v15c0 .4.5.8 1 .8zm1-15h1.7c6.3 0 11.4 4.6 11.4 10.2v2.9h-13.1z" fill="#fff"/><circle cx="-1039.5" cy="352.2" fill="none" r="57.3" stroke="#fff" stroke-miterlimit="10" stroke-width="3"/></svg>