<?xml version="1.0" encoding="utf-8"?>
<!-- Generator: Adobe Illustrator 19.0.0, SVG Export Plug-In . SVG Version: 6.00 Build 0)  -->
<svg version="1.1" id="Layer_1" xmlns="http://www.w3.org/2000/svg" xmlns:xlink="http://www.w3.org/1999/xlink" x="0px" y="0px"
	 viewBox="-1098.3 293.4 117.6 117.6" style="enable-background:new -1098.3 293.4 117.6 117.6;" xml:space="preserve">
<style type="text/css">
	.st0{fill:#FF9402;}
	.st1{fill:#FFFFFF;}
	.st2{fill:none;stroke:#FFFFFF;stroke-width:3;stroke-miterlimit:10;}
</style>
<path class="st0" d="M-1065.3,347.4c0.1,0.3,0.4,0.5,0.7,0.6c0.3,0.1,0.6,0,0.9-0.3c0.5-0.5,2-1.6,3.3-2.2l-0.5,18.9
	c0,0.3,0.1,0.5,0.3,0.7c0.2,0.2,0.4,0.3,0.7,0.3l0,0h19.6c0.3,0,0.5-0.1,0.7-0.3c0.2-0.2,0.3-0.5,0.3-0.7l-0.5-18.9
	c1.4,0.5,2.8,1.7,3.3,2.2c0.2,0.2,0.6,0.3,0.9,0.3c0.3-0.1,0.6-0.3,0.7-0.6l4-8.7c0.2-0.4,0.1-0.9-0.2-1.1
	c-6.6-6.2-13.2-6.9-13.4-6.9h-0.1h-0.2c-0.6,0-1,0.4-1,1c0,2.4-2,4.4-4.4,4.4s-4.4-2-4.4-4.4c0-0.3-0.1-0.6-0.3-0.7
	s-0.5-0.3-0.8-0.3c-0.3,0-6.8,0.8-13.4,6.9c-0.3,0.3-0.4,0.8-0.2,1.1L-1065.3,347.4z M-1056.4,332.8c0.6,2.9,3.1,5.2,6.2,5.2
	s5.7-2.3,6.3-5.2c1.8,0.4,6.3,1.7,11,5.8l-3.1,6.9c-1.1-0.8-2.9-2-4.6-2.1c-0.3,0-0.6,0.1-0.8,0.3c-0.2,0.2-0.3,0.5-0.3,0.8
	l0.5,19.2h-17.6l0.5-19.2c0-0.3-0.1-0.6-0.3-0.8c-0.2-0.2-0.4-0.3-0.7-0.3h-0.1c-1.7,0.1-3.5,1.3-4.6,2.1l-3.1-6.9
	C-1062.7,334.6-1058.3,333.2-1056.4,332.8z"/>
<path class="st1" d="M-1078.1,382.2h4.4c0.5,4.6,4.8,8.3,10.1,8.3c5.3,0,9.6-3.6,10.1-8.3h28.4c0.5,4.6,4.8,8.3,10.1,8.3
	s9.6-3.6,10.1-8.3h5c0.6,0,1-0.4,1-0.9v-28.7c0-9.3-8.4-16.8-18.7-16.8h-2.9v-16.4c0-0.5-0.4-0.9-1-0.9h-56.5c-0.6,0-1,0.4-1,0.9
	v61.9C-1079.1,381.8-1078.6,382.2-1078.1,382.2z M-1063.6,388.7c-4.5,0-8.1-3.3-8.1-7.3s3.6-7.3,8.1-7.3s8.1,3.3,8.1,7.3
	C-1055.4,385.4-1059.1,388.7-1063.6,388.7z M-1015,388.7c-4.5,0-8.1-3.3-8.1-7.3s3.6-7.3,8.1-7.3s8.1,3.3,8.1,7.3
	S-1010.5,388.7-1015,388.7z M-1077.1,320.3h54.5v16.4c0,0.5,0.4,0.9,1,0.9h3.9c9.2,0,16.7,6.7,16.7,15v27.8h-4
	c-0.5-4.6-4.8-8.2-10.1-8.2c-5.2,0-9.5,3.6-10.1,8.2h-28.4c-0.5-4.6-4.8-8.2-10.1-8.2c-5.3,0-9.5,3.6-10.1,8.2h-3.4L-1077.1,320.3
	L-1077.1,320.3z"/>
<path class="st1" d="M-1021.6,357.7h15.1c0.6,0,1-0.4,1-0.9V353c0-6.6-6-12-13.4-12h-2.7c-0.6,0-1,0.4-1,0.9v15
	C-1022.6,357.3-1022.1,357.7-1021.6,357.7z M-1020.6,342.7h1.7c6.3,0,11.4,4.6,11.4,10.2v2.9h-13.1V342.7z"/>
<circle class="st2" cx="-1039.5" cy="352.2" r="57.3"/>
</svg>
