<?xml version="1.0" encoding="utf-8"?>
<!-- Generator: Adobe Illustrator 19.0.0, SVG Export Plug-In . SVG Version: 6.00 Build 0)  -->
<svg version="1.1" id="Layer_1" xmlns="http://www.w3.org/2000/svg" xmlns:xlink="http://www.w3.org/1999/xlink" x="0px" y="0px"
	 viewBox="-1098.4 322 86.8 86.8" style="enable-background:new -1098.4 322 86.8 86.8;" xml:space="preserve">
<style type="text/css">
	.st0{display:none;fill:#DEDEDE;}
	.st1{fill:#FF9402;}
	.st2{fill:none;stroke:#FFFFFF;stroke-width:2.5;stroke-miterlimit:10;}
</style>
<rect x="-1098.3" y="322.1" class="st0" width="86.6" height="86.6"/>
<g>
	<path class="st1" d="M-1024.4,334.8c-8.2-8.2-19.1-12.7-30.6-12.7c-11.6,0-22.5,4.5-30.6,12.7c-5,5-8.5,10.8-10.7,17.5
		c-0.2,0.5,0.1,1.1,0.7,1.3c0.5,0.2,1.1-0.1,1.3-0.7c2-6.3,5.4-11.9,10.2-16.7c2.8-2.8,6-5.2,9.4-7v8l9.8,7h6.7l10.2-7.1v-9.3h-24.2
		c5.4-2.5,11.2-3.8,17.3-3.8c5.9,0,11.7,1.3,16.9,3.6l-5.9,2.6l0,0l0,0l0,0c-0.1,0-0.2,0.1-0.3,0.2c0,0-0.2,0.2-0.2,0.3
		c0,0-0.1,0.2-0.1,0.3l-4.1,45c0,0.5,0.3,1,0.9,1.1l5.1,0.6c0.3,0,0.5,0,0.7-0.2c0.2-0.2,0.3-0.4,0.4-0.7l0.8-6.4v9.6
		c0,0.3,0.2,0.6,0.4,0.8c0.1,0.1,2.2,1.5,6.8,1.5c0.3,0,0.7,0,1.1,0s0.7-0.2,0.9-0.6l0.6-1.2c0.6,0.2,1.5,0.4,2.7,0.4
		c0.9,0,2-0.1,3.3-0.4l0.6,1.3c0.2,0.3,0.5,0.5,0.9,0.6c0.4,0,0.7,0,1.1,0c2.8,0,4.7-0.5,5.7-1c-2,4.8-5,9.3-8.9,13.2
		c-6.1,6.1-13.7,9.9-21.7,11.4c-0.2-3.1-0.4-5.7-0.6-7.8c0.3,0.3,0.7,0.4,1.1,0.3l6.7-2.3c0.3-0.1,0.5-0.3,0.6-0.5
		c0.1-0.2,0.1-0.5,0-0.8l-4.8-12l0,0l0,0c0-0.1-0.1-0.2-0.2-0.3c0,0,0,0-0.1,0c-0.1-0.1-0.2-0.1-0.2-0.2l-9.3-4.4
		c-0.1-0.1-0.3-0.1-0.4-0.1h-8.9c-0.2,0-0.3,0-0.5,0.1l-9.2,5c-0.1,0.1-0.2,0.1-0.3,0.2c0,0,0,0.1-0.1,0.1c0,0.1-0.1,0.1-0.1,0.2
		l-4.1,12c-0.1,0.3-0.1,0.5,0.1,0.8c0.1,0.2,0.3,0.4,0.6,0.5l6.6,2c0.5,0.1,1-0.1,1.2-0.5l0.3-0.6c0,1.8-0.1,4.1-0.2,6.5
		c-5.5-2-10.6-5.2-15-9.6c-8.4-8.4-12.8-20-12-31.9c0-0.6-0.4-1-0.9-1.1c-0.6,0-1,0.4-1.1,0.9c-0.8,12.4,3.8,24.6,12.6,33.4
		c8.2,8.2,19.1,12.7,30.6,12.7c11.6,0,22.4-4.5,30.6-12.7C-1007.5,379.1-1007.5,351.7-1024.4,334.8z M-1050.1,334.9
		c-1-0.3-2-0.3-3.2-0.1c-1.8,0.4-3.5,1.5-4.9,3c-1.1,1.3-1.9,2.8-2.2,4.3h-3c-0.3-1.5-1.1-3-2.2-4.3c-2.1-2.4-5-3.5-7.4-3.1v-2.3
		h22.8C-1050.1,332.5-1050.1,334.9-1050.1,334.9z M-1051,336.7l-7,4.8c0.3-0.8,0.8-1.7,1.4-2.4c1.1-1.2,2.4-2.1,3.8-2.4
		C-1052.2,336.7-1051.6,336.6-1051,336.7z M-1065.6,341.3l-6.4-4.6c1.7-0.1,3.6,0.8,5.1,2.5C-1066.4,339.8-1066,340.6-1065.6,341.3z
		 M-1050.1,330.5h-22.8v-0.7h22.8L-1050.1,330.5L-1050.1,330.5z M-1046.7,396.3l-1.5-3.9l2.8-6.5l3.5,8.8L-1046.7,396.3z
		 M-1059.2,384.1l-2.5-4.2h5.3L-1059.2,384.1z M-1061.5,384.2c-0.7,0-1.4,0.1-2,0.3l-0.9-4l0.5-0.3L-1061.5,384.2z M-1054.3,380.2
		l0.3,0.1l-0.9,4.2c-0.5-0.2-1.2-0.3-2-0.3L-1054.3,380.2z M-1070.7,396.6l-4.8-1.4l3-8.8l3.5,6.5L-1070.7,396.6z M-1066.9,392.9
		C-1066.9,392.8-1066.9,392.8-1066.9,392.9c0-0.1,0-0.1,0-0.2c0-0.1,0-0.2-0.1-0.2c0,0,0,0,0-0.1l-4.3-8.1l5.2-2.8l1.3,6l1.2-0.7
		c0,0,1.9-1.1,3.4-0.3v19.9c-2.4-0.3-4.7-0.8-7-1.5C-1067,398.4-1066.9,392.9-1066.9,392.9z M-1058.3,406.6v-20
		c1.6-0.8,3.5,0.3,3.5,0.3l1.2,0.7l1.4-6.3l5.5,2.6l-3.6,8.2l0,0c0,0.1-0.1,0.2-0.1,0.4l0,0l0,0c0,1.6,0.3,6.3,0.9,14
		C-1052.4,406.7-1055.3,406.8-1058.3,406.6z M-1013.8,367.8l-1.7-14.2v-0.1C-1014.1,358.1-1013.5,363-1013.8,367.8z M-1034.5,333.6
		c-0.1-0.3-0.2-0.5-0.5-0.6l-1.7-1l1.5-2.9c0.5,0.3,1,0.6,1.5,0.9c0.3,5.7,2.2,13.6,3.4,18.3c-3.1-4-5.4-9.6-6.1-11.2l1.7-2.8
		C-1034.5,334.2-1034.4,333.9-1034.5,333.6z M-1021.9,340.7c-1,2-2.5,4.9-4.3,7.3c0.7-2.6,1.5-6.2,2.2-9.8
		C-1023.2,339-1022.5,339.9-1021.9,340.7z M-1025.6,336.4c-0.7,4.3-1.8,8.7-2.6,11.7c-1.1-4.2-2.8-11.2-3.3-16.6
		c2,1.4,3.9,3,5.7,4.8C-1025.7,336.2-1025.7,336.3-1025.6,336.4z M-1043.6,375.7l-3.1-0.4l3.6-39.1c1.8,7.3,2.1,16.4,2.1,17.2
		L-1043.6,375.7z M-1038.9,379.5v-26l0,0l0,0c0-0.6-0.4-13.7-3.4-21.8l4.7-2l-1.2,2.3c-0.3,0.5-0.1,1.1,0.4,1.3l1.6,0.9l-1.4,2.3
		c-0.2,0.3-0.2,0.6-0.1,0.9c0.2,0.4,3.9,10.3,9.1,14.9v0.1v19.7l-3.4,6.8l0,0l0,0l-0.8,1.5C-1036.4,380.4-1038.2,379.8-1038.9,379.5
		z M-1030.3,378.8l2.1-4.2l2.1,4.1C-1028.1,379.1-1029.5,379-1030.3,378.8z M-1017.5,379.5c-0.8,0.3-2.5,1-5.6,0.9l-4.1-8.3v-19.9
		c2.7-2.4,5-6.3,6.7-9.6c1.3,2,2.4,4,3.3,6.1c-0.2,2.4-0.2,4.1-0.2,4.7v0.1L-1017.5,379.5L-1017.5,379.5z M-1015.5,370.5l0.6,4.8
		c-0.2,0.7-0.4,1.4-0.6,2.1V370.5z"/>
	<path class="st1" d="M-1097,360c0.1,0,0.1,0,0.2,0c0.5,0,0.9-0.4,1-0.8c0.1-0.8,0.3-1.6,0.4-2.4c0.1-0.5-0.2-1.1-0.8-1.2
		c-0.5-0.1-1.1,0.2-1.2,0.8c-0.2,0.8-0.3,1.7-0.5,2.5C-1097.9,359.4-1097.5,359.9-1097,360z"/>
	<path class="st1" d="M-1092.5,356.3l-0.5,0.3l1.5,18.7h11.8l2.1-5.5l2.5,5.5h11.1l1.4-18.6l-0.3-0.3c0,0-4-4.2-3.2-10l0.2-1.1
		h-24.4l0.1,1.1c0.1,0.8,0.2,2.3,0,3.8l0,0l0,0C-1090.3,352.5-1090.9,355.2-1092.5,356.3z M-1081,373.4h-8.6l-1-12
		c4.4-2.8,5.1-8,5.2-10.2h6.8v16L-1081,373.4z M-1073.7,373.4l-2.9-6.3v-15.9h6.1c0.2,2.1,1.3,7.2,5.6,10.1l-0.9,12.1H-1073.7
		L-1073.7,373.4z M-1064.7,358.9c-2.7-2.4-3.5-6-3.8-7.8h0.7c0.8,3.2,2.5,5.5,3.2,6.3L-1064.7,358.9z M-1068.2,347.3
		c0,0.7,0,1.3,0,1.9h-19.9c0-0.7,0-1.4,0-1.9H-1068.2z M-1088.2,351.2h0.8c-0.1,1.7-0.6,5.4-3.4,7.8l-0.1-1.4
		C-1089.2,356.1-1088.5,353.5-1088.2,351.2z"/>
	<rect x="-1065.6" y="392" class="st1" width="4.1" height="2"/>
	<rect x="-1055.4" y="392" class="st1" width="4.1" height="2"/>
	<rect x="-1056.8" y="398" class="st1" width="2" height="1.1"/>
	<rect x="-1056.8" y="401.2" class="st1" width="2" height="1.1"/>
	<rect x="-1056.8" y="404.1" class="st1" width="2" height="1.1"/>
	<path class="st1" d="M-1030.2,360.9v-6c0-1.3-1.1-2.4-2.4-2.4h-2.7c-1.3,0-2.4,1.1-2.4,2.4v6c0,1.3,1.1,2.4,2.4,2.4h2.7
		C-1031.3,363.4-1030.2,362.3-1030.2,360.9z M-1035.3,354.5h2.7c0.2,0,0.4,0.2,0.4,0.4v0.6l-1.8,1.2l-1.8-1.2v-0.6
		C-1035.7,354.7-1035.5,354.5-1035.3,354.5z M-1035.7,360.9v-3l1.8,1.2l1.8-1.2v3c0,0.2-0.2,0.4-0.4,0.4h-2.7
		C-1035.5,361.4-1035.7,361.2-1035.7,360.9z"/>
	<rect x="-1034.9" y="359.8" class="st1" width="2" height="1"/>
	<path class="st1" d="M-1021.1,352.5h-2.7c-1.3,0-2.4,1.1-2.4,2.4v6c0,1.3,1.1,2.4,2.4,2.4h2.7c1.3,0,2.4-1.1,2.4-2.4v-6
		C-1018.6,353.6-1019.7,352.5-1021.1,352.5z M-1023.8,354.5h2.7c0.2,0,0.4,0.2,0.4,0.4v0.6l-1.8,1.2l-1.8-1.2v-0.6
		C-1024.2,354.7-1024,354.5-1023.8,354.5z M-1021.1,361.4h-2.7c-0.2,0-0.4-0.2-0.4-0.4v-3l1.8,1.2l1.8-1.2v3
		C-1020.6,361.2-1020.8,361.4-1021.1,361.4z"/>
	<rect x="-1023.4" y="359.8" class="st1" width="2" height="1"/>
</g>
<circle class="st2" cx="-1055" cy="365.4" r="42"/>
</svg>
