<svg enable-background="new -1098.4 322 86.8 86.8" viewBox="-1098.4 322 86.8 86.8" xmlns="http://www.w3.org/2000/svg"><g fill="#ff9402"><path d="m-1024.4 334.8c-8.2-8.2-19.1-12.7-30.6-12.7-11.6 0-22.5 4.5-30.6 12.7-5 5-8.5 10.8-10.7 17.5-.2.5.1 1.1.7 1.3.5.2 1.1-.1 1.3-.7 2-6.3 5.4-11.9 10.2-16.7 2.8-2.8 6-5.2 9.4-7v8l9.8 7h6.7l10.2-7.1v-9.3h-24.2c5.4-2.5 11.2-3.8 17.3-3.8 5.9 0 11.7 1.3 16.9 3.6l-5.9 2.6c-.1 0-.2.1-.3.2 0 0-.2.2-.2.3 0 0-.1.2-.1.3l-4.1 45c0 .5.3 1 .9 1.1l5.1.6c.3 0 .5 0 .7-.2s.3-.4.4-.7l.8-6.4v9.6c0 .3.2.6.4.8.1.1 2.2 1.5 6.8 1.5h1.1s.7-.2.9-.6l.6-1.2c.6.2 1.5.4 2.7.4.9 0 2-.1 3.3-.4l.6 1.3c.2.3.5.5.9.6h1.1c2.8 0 4.7-.5 5.7-1-2 4.8-5 9.3-8.9 13.2-6.1 6.1-13.7 9.9-21.7 11.4-.2-3.1-.4-5.7-.6-7.8.3.3.7.4 1.1.3l6.7-2.3c.3-.1.5-.3.6-.5s.1-.5 0-.8l-4.8-12c0-.1-.1-.2-.2-.3 0 0 0 0-.1 0-.1-.1-.2-.1-.2-.2l-9.3-4.4c-.1-.1-.3-.1-.4-.1h-8.9c-.2 0-.3 0-.5.1l-9.2 5c-.1.1-.2.1-.3.2 0 0 0 .1-.1.1 0 .1-.1.1-.1.2l-4.1 12c-.1.3-.1.5.1.8.1.2.3.4.6.5l6.6 2c.5.1 1-.1 1.2-.5l.3-.6c0 1.8-.1 4.1-.2 6.5-5.5-2-10.6-5.2-15-9.6-8.4-8.4-12.8-20-12-31.9 0-.6-.4-1-.9-1.1-.6 0-1 .4-1.1.9-.8 12.4 3.8 24.6 12.6 33.4 8.2 8.2 19.1 12.7 30.6 12.7 11.6 0 22.4-4.5 30.6-12.7 16.7-16.8 16.7-44.2-.2-61.1zm-25.7.1c-1-.3-2-.3-3.2-.1-1.8.4-3.5 1.5-4.9 3-1.1 1.3-1.9 2.8-2.2 4.3h-3c-.3-1.5-1.1-3-2.2-4.3-2.1-2.4-5-3.5-7.4-3.1v-2.3h22.8c.1.1.1 2.5.1 2.5zm-.9 1.8-7 4.8c.3-.8.8-1.7 1.4-2.4 1.1-1.2 2.4-2.1 3.8-2.4.6 0 1.2-.1 1.8 0zm-14.6 4.6-6.4-4.6c1.7-.1 3.6.8 5.1 2.5.5.6.9 1.4 1.3 2.1zm15.5-10.8h-22.8v-.7h22.8zm3.4 65.8-1.5-3.9 2.8-6.5 3.5 8.8zm-12.5-12.2-2.5-4.2h5.3zm-2.3.1c-.7 0-1.4.1-2 .3l-.9-4 .5-.3zm7.2-4 .3.1-.9 4.2c-.5-.2-1.2-.3-2-.3zm-16.4 16.4-4.8-1.4 3-8.8 3.5 6.5zm3.8-3.7c0-.1 0-.1 0 0 0-.1 0-.1 0-.2s0-.2-.1-.2c0 0 0 0 0-.1l-4.3-8.1 5.2-2.8 1.3 6 1.2-.7s1.9-1.1 3.4-.3v19.9c-2.4-.3-4.7-.8-7-1.5.2-6.5.3-12 .3-12zm8.6 13.7v-20c1.6-.8 3.5.3 3.5.3l1.2.7 1.4-6.3 5.5 2.6-3.6 8.2c0 .1-.1.2-.1.4 0 1.6.3 6.3.9 14-2.9.2-5.8.3-8.8.1zm44.5-38.8-1.7-14.2v-.1c1.4 4.6 2 9.5 1.7 14.3zm-20.7-34.2c-.1-.3-.2-.5-.5-.6l-1.7-1 1.5-2.9c.5.3 1 .6 1.5.9.3 5.7 2.2 13.6 3.4 18.3-3.1-4-5.4-9.6-6.1-11.2l1.7-2.8c.2-.1.3-.4.2-.7zm12.6 7.1c-1 2-2.5 4.9-4.3 7.3.7-2.6 1.5-6.2 2.2-9.8.8.8 1.5 1.7 2.1 2.5zm-3.7-4.3c-.7 4.3-1.8 8.7-2.6 11.7-1.1-4.2-2.8-11.2-3.3-16.6 2 1.4 3.9 3 5.7 4.8.1-.1.1 0 .2.1zm-18 39.3-3.1-.4 3.6-39.1c1.8 7.3 2.1 16.4 2.1 17.2zm4.7 3.8v-26c0-.6-.4-13.7-3.4-21.8l4.7-2-1.2 2.3c-.3.5-.1 1.1.4 1.3l1.6.9-1.4 2.3c-.2.3-.2.6-.1.9.2.4 3.9 10.3 9.1 14.9v.1 19.7l-3.4 6.8-.8 1.5c-3 0-4.8-.6-5.5-.9zm8.6-.7 2.1-4.2 2.1 4.1c-2 .4-3.4.3-4.2.1zm12.8.7c-.8.3-2.5 1-5.6.9l-4.1-8.3v-19.9c2.7-2.4 5-6.3 6.7-9.6 1.3 2 2.4 4 3.3 6.1-.2 2.4-.2 4.1-.2 4.7v.1zm2-9 .6 4.8c-.2.7-.4 1.4-.6 2.1z"/><path d="m-1097 360h.2c.5 0 .9-.4 1-.8.1-.8.3-1.6.4-2.4.1-.5-.2-1.1-.8-1.2-.5-.1-1.1.2-1.2.8-.2.8-.3 1.7-.5 2.5 0 .5.4 1 .9 1.1z"/><path d="m-1092.5 356.3-.5.3 1.5 18.7h11.8l2.1-5.5 2.5 5.5h11.1l1.4-18.6-.3-.3s-4-4.2-3.2-10l.2-1.1h-24.4l.1 1.1c.1.8.2 2.3 0 3.8-.1 2.3-.7 5-2.3 6.1zm11.5 17.1h-8.6l-1-12c4.4-2.8 5.1-8 5.2-10.2h6.8v16zm7.3 0-2.9-6.3v-15.9h6.1c.2 2.1 1.3 7.2 5.6 10.1l-.9 12.1zm9-14.5c-2.7-2.4-3.5-6-3.8-7.8h.7c.8 3.2 2.5 5.5 3.2 6.3zm-3.5-11.6v1.9h-19.9c0-.7 0-1.4 0-1.9zm-20 3.9h.8c-.1 1.7-.6 5.4-3.4 7.8l-.1-1.4c1.7-1.5 2.4-4.1 2.7-6.4z"/><path d="m-1065.6 392h4.1v2h-4.1z"/><path d="m-1055.4 392h4.1v2h-4.1z"/><path d="m-1056.8 398h2v1.1h-2z"/><path d="m-1056.8 401.2h2v1.1h-2z"/><path d="m-1056.8 404.1h2v1.1h-2z"/><path d="m-1030.2 360.9v-6c0-1.3-1.1-2.4-2.4-2.4h-2.7c-1.3 0-2.4 1.1-2.4 2.4v6c0 1.3 1.1 2.4 2.4 2.4h2.7c1.3.1 2.4-1 2.4-2.4zm-5.1-6.4h2.7c.2 0 .4.2.4.4v.6l-1.8 1.2-1.8-1.2v-.6c.1-.2.3-.4.5-.4zm-.4 6.4v-3l1.8 1.2 1.8-1.2v3c0 .2-.2.4-.4.4h-2.7c-.3.1-.5-.1-.5-.4z"/><path d="m-1034.9 359.8h2v1h-2z"/><path d="m-1021.1 352.5h-2.7c-1.3 0-2.4 1.1-2.4 2.4v6c0 1.3 1.1 2.4 2.4 2.4h2.7c1.3 0 2.4-1.1 2.4-2.4v-6c.1-1.3-1-2.4-2.4-2.4zm-2.7 2h2.7c.2 0 .4.2.4.4v.6l-1.8 1.2-1.8-1.2v-.6c.1-.2.3-.4.5-.4zm2.7 6.9h-2.7c-.2 0-.4-.2-.4-.4v-3l1.8 1.2 1.8-1.2v3c0 .2-.2.4-.5.4z"/><path d="m-1023.4 359.8h2v1h-2z"/></g><circle cx="-1055" cy="365.4" fill="none" r="42" stroke="#fff" stroke-miterlimit="10" stroke-width="2.5"/></svg>