<?xml version="1.0" encoding="utf-8"?>
<!-- Generator: Adobe Illustrator 19.0.0, SVG Export Plug-In . SVG Version: 6.00 Build 0)  -->
<svg version="1.1" id="Layer_1" xmlns="http://www.w3.org/2000/svg" xmlns:xlink="http://www.w3.org/1999/xlink" x="0px" y="0px"
	 viewBox="-1095.3 272.2 132.6 132.6" style="enable-background:new -1095.3 272.2 132.6 132.6;" xml:space="preserve">
<style type="text/css">
	.st0{fill:#FF9402;}
	.st1{fill:#FFFFFF;}
	.st2{fill:none;stroke:#FFFFFF;stroke-width:3;stroke-miterlimit:10;}
</style>
<g>
	<path class="st0" d="M-992.9,298.6h-38.8c-4.7,0-8.4,3.8-8.4,8.4v20.5c0,4.6,3.7,8.3,8.3,8.4v5.1c0,2.3,1.4,4.3,3.5,5.2
		c0.7,0.3,1.4,0.4,2.2,0.4c1.5,0,2.9-0.6,4-1.7l9.1-9.1h20.3c4.7,0,8.4-3.8,8.4-8.4v-20.3C-984.5,302.4-988.3,298.6-992.9,298.6z
		 M-990.4,327.6c0,1.4-1.2,2.6-2.6,2.6h-21.4c-0.8,0-1.5,0.3-2.1,0.9l-9.5,9.4V333c0-1.6-1.3-2.9-2.9-2.9h-2.7
		c-1.4,0-2.6-1.2-2.6-2.6v-20.4c0-1.4,1.2-2.6,2.6-2.6h38.8c1.4,0,2.6,1.2,2.6,2.6v20.5H-990.4z"/>
	<circle class="st0" cx="-1024.9" cy="317.3" r="4.1"/>
	<circle class="st0" cx="-1012.3" cy="317.3" r="4.1"/>
	<circle class="st0" cx="-999.8" cy="317.3" r="4.1"/>
	<path class="st1" d="M-1018.6,362.3l-7.9-6.3c-1.7-1.4-3.9-2.1-6-2.1c-2.8,0-5.5,1.2-7.4,3.4c-0.4,0.5-0.7,0.8-1,1.2
		c-1.1-0.7-2.9-2-5.8-4.9s-4.2-4.7-4.9-5.8c0.3-0.3,0.7-0.6,1.2-1c4-3.4,4.6-9.3,1.3-13.4l-6.4-7.9c-1.9-2.3-4.6-3.7-7.6-3.7l0,0
		c-1.3,0-2.6,0.3-3.9,0.8c-3.3,1.4-7.9,5.4-8.8,6.4c-6.1,6.1-3.3,15.1-1,19.8c2.9,6.1,8.1,13,15,19.9c6.6,6.6,19.3,17.7,30.3,17.7
		c3.7,0,7-1.3,9.4-3.7c1-1,5-5.5,6.4-8.8C-1014,369.8-1015.2,365-1018.6,362.3z M-1021.1,371.5c-0.9,2.2-4.1,6-5.1,7
		c-1.4,1.4-3.2,2-5.3,2c-6.7,0-16.6-6.4-26.2-16c-12.5-12.5-19.7-25.7-14-31.4c1-1,4.9-4.2,7-5.2c0.5-0.2,1-0.3,1.5-0.3
		c1.2,0,2.3,0.5,3,1.5l6.3,7.9c1.3,1.6,1.1,4-0.5,5.3c-1.6,1.4-2.7,2.4-3,2.7c-2.4,2.4,1.1,7.4,6.4,12.7c4.1,4.1,8.1,7.2,10.8,7.2
		c0.8,0,1.4-0.2,1.9-0.8c0.3-0.3,1.3-1.4,2.7-3c0.8-0.9,1.9-1.4,2.9-1.4c0.8,0,1.7,0.3,2.4,0.8l7.9,6.3
		C-1020.9,368-1020.4,369.9-1021.1,371.5z"/>
</g>
<circle class="st2" cx="-1029" cy="338.5" r="64.8"/>
</svg>
