<svg enable-background="new -1095.3 272.2 132.6 132.6" viewBox="-1095.3 272.2 132.6 132.6" xmlns="http://www.w3.org/2000/svg"><g fill="#ff9402"><path d="m-992.9 298.6h-38.8c-4.7 0-8.4 3.8-8.4 8.4v20.5c0 4.6 3.7 8.3 8.3 8.4v5.1c0 2.3 1.4 4.3 3.5 5.2.7.3 1.4.4 2.2.4 1.5 0 2.9-.6 4-1.7l9.1-9.1h20.3c4.7 0 8.4-3.8 8.4-8.4v-20.3c-.2-4.7-4-8.5-8.6-8.5zm2.5 29c0 1.4-1.2 2.6-2.6 2.6h-21.4c-.8 0-1.5.3-2.1.9l-9.5 9.4v-7.5c0-1.6-1.3-2.9-2.9-2.9h-2.7c-1.4 0-2.6-1.2-2.6-2.6v-20.4c0-1.4 1.2-2.6 2.6-2.6h38.8c1.4 0 2.6 1.2 2.6 2.6v20.5z"/><circle cx="-1024.9" cy="317.3" r="4.1"/><circle cx="-1012.3" cy="317.3" r="4.1"/><circle cx="-999.8" cy="317.3" r="4.1"/></g><path d="m-1018.6 362.3-7.9-6.3c-1.7-1.4-3.9-2.1-6-2.1-2.8 0-5.5 1.2-7.4 3.4-.4.5-.7.8-1 1.2-1.1-.7-2.9-2-5.8-4.9s-4.2-4.7-4.9-5.8c.3-.3.7-.6 1.2-1 4-3.4 4.6-9.3 1.3-13.4l-6.4-7.9c-1.9-2.3-4.6-3.7-7.6-3.7-1.3 0-2.6.3-3.9.8-3.3 1.4-7.9 5.4-8.8 6.4-6.1 6.1-3.3 15.1-1 19.8 2.9 6.1 8.1 13 15 19.9 6.6 6.6 19.3 17.7 30.3 17.7 3.7 0 7-1.3 9.4-3.7 1-1 5-5.5 6.4-8.8 1.7-4.1.5-8.9-2.9-11.6zm-2.5 9.2c-.9 2.2-4.1 6-5.1 7-1.4 1.4-3.2 2-5.3 2-6.7 0-16.6-6.4-26.2-16-12.5-12.5-19.7-25.7-14-31.4 1-1 4.9-4.2 7-5.2.5-.2 1-.3 1.5-.3 1.2 0 2.3.5 3 1.5l6.3 7.9c1.3 1.6 1.1 4-.5 5.3-1.6 1.4-2.7 2.4-3 2.7-2.4 2.4 1.1 7.4 6.4 12.7 4.1 4.1 8.1 7.2 10.8 7.2.8 0 1.4-.2 1.9-.8.3-.3 1.3-1.4 2.7-3 .8-.9 1.9-1.4 2.9-1.4.8 0 1.7.3 2.4.8l7.9 6.3c1.5 1.2 2 3.1 1.3 4.7z" fill="#fff"/><circle cx="-1029" cy="338.5" fill="none" r="64.8" stroke="#fff" stroke-miterlimit="10" stroke-width="3"/></svg>