<svg enable-background="new 0 0 92.5 92.5" viewBox="0 0 92.5 92.5" xmlns="http://www.w3.org/2000/svg"><circle cx="46.25" cy="46.25" fill="none" r="44.75" stroke="#f7931e" stroke-miterlimit="10" stroke-width="3"/><circle cx="46.25" cy="46.25" fill="#f7931e" r="40.5"/><path d="m66.71 50.64-14.66-5.69 3.6-3.6c.14-.14.21-.33.21-.52-.01-.2-.09-.38-.24-.51l-12.5-11c.78-.49 1.96-1.18 2.3-1.34.19-.09.32-.25.38-.45.05-.2.02-.41-.1-.58-.03-.05-3.36-5.01-4.08-9.98-.03-.19-.13-.36-.28-.47s-.35-.16-.53-.13c-7.33 1.22-11.77 4.85-11.95 5-.15.13-.25.31-.26.51s.07.39.21.53c2.06 2.06 2.03 5.43-.06 7.52-2.06 2.05-5.4 2.06-7.46 0-.14-.14-.33-.22-.53-.21s-.39.1-.51.26c-.15.19-3.79 4.62-5.01 11.95-.03.19.02.39.14.55s.3.25.49.28c5.77.6 9.85 3.99 9.89 4.03.17.14.39.2.61.15.21-.05.4-.19.49-.39.16-.34.86-1.52 1.35-2.3l8.97 10.2-5.42 8.65c-.11.17-.14.38-.08.57s.19.36.37.44l10.53 5.04c.31.15.68.05.88-.22 2.66-3.68 6.02-7.75 7.15-8.38.38 1.25.13 6.52-.35 11.03-.04.34.17.66.5.75l11.17 3.38c.07.02.14.03.21.03.13 0 .26-.04.37-.1.17-.1.29-.28.33-.48l4.33-23.73c.04-.34-.14-.67-.46-.79zm-28.57 4.92 1.05 1.19c.13.15.31.23.51.24h.02c.19 0 .37-.07.5-.21l8.58-8.58 2.68 1.04c-.86.59-1.79 1.59-1.94 3.19-.15 1.56-.93 2.73-1.4 3.3-.02-.01-.04-.02-.06-.03-.38-.15-.79-.14-1.16.03-.37.16-.66.46-.8.84-.15.38-.14.79.03 1.16.16.37.46.66.84.8.18.07.37.1.55.1.61 0 1.18-.37 1.42-.97.1-.25.12-.52.08-.78.54-.6 1.73-2.14 1.93-4.33.16-1.71 1.73-2.45 2.26-2.64l2.61 1.01c.26.51.93 2.11-.11 3.48-1.33 1.75-1.49 3.7-1.49 4.5-.26.17-.47.42-.58.72-.15.38-.14.79.03 1.16s.46.66.84.8c.18.07.36.1.55.1.21 0 .42-.04.61-.13.37-.16.66-.46.8-.84.15-.38.14-.79-.03-1.16-.16-.36-.44-.63-.8-.79.02-.69.2-2.19 1.2-3.51.96-1.28.95-2.64.71-3.66l7.59 2.94-3.57 19.57-9.85-2.98c1.17-11.32-.05-11.8-.51-11.98l-.1-.04c-.48-.19-1.76-.69-8.46 8.5l-9.28-4.44zm17 4.65c-.02.04-.09.08-.13.06s-.08-.09-.06-.13c.01-.04.06-.06.1-.06.01 0 .02 0 .03.01.05.01.08.08.06.12zm-7.53-3.05c-.02.05-.08.08-.13.06-.04-.02-.08-.09-.06-.13.01-.04.06-.06.1-.06.01 0 .02 0 .03.01.05 0 .08.07.06.12zm6.5-16.28-14.36 14.36-11.1-12.63c-.13-.15-.33-.24-.53-.24-.21 0-.4.09-.53.25-.28.32-1.08 1.65-1.6 2.54-1.38-.99-4.74-3.09-9.22-3.74.99-5.08 3.19-8.63 4.13-9.96 2.62 2.06 6.44 1.88 8.85-.54 2.45-2.45 2.65-6.29.6-8.92 1.34-.94 4.91-3.15 9.99-4.13.75 3.99 2.86 7.72 3.77 9.19-.9.51-2.27 1.35-2.6 1.63-.16.13-.25.33-.25.53 0 .21.09.4.24.54zm11.54 10.87-.25 1.37-15.5-6.01 1.06-1.06z" fill="#fff"/></svg>