<?xml version="1.0" encoding="utf-8"?>
<!-- Generator: Adobe Illustrator 23.0.1, SVG Export Plug-In . SVG Version: 6.00 Build 0)  -->
<svg version="1.1" id="Layer_1" xmlns="http://www.w3.org/2000/svg" xmlns:xlink="http://www.w3.org/1999/xlink" x="0px" y="0px"
	 viewBox="0 0 92.5 92.5" style="enable-background:new 0 0 92.5 92.5;" xml:space="preserve">
<style type="text/css">
	.st0{fill:none;stroke:#F7931E;stroke-width:3;stroke-miterlimit:10;}
	.st1{fill:#F7931E;}
	.st2{fill:#FFFFFF;}
</style>
<circle id="XMLID_224_" class="st0" cx="46.25" cy="46.25" r="44.75"/>
<circle id="XMLID_204_" class="st1" cx="46.25" cy="46.25" r="40.5"/>
<path id="XMLID_203_" class="st2" d="M66.71,50.64l-14.66-5.69l3.6-3.6c0.14-0.14,0.21-0.33,0.21-0.52
	c-0.01-0.2-0.09-0.38-0.24-0.51l-12.5-11c0.78-0.49,1.96-1.18,2.3-1.34c0.19-0.09,0.32-0.25,0.38-0.45c0.05-0.2,0.02-0.41-0.1-0.58
	c-0.03-0.05-3.36-5.01-4.08-9.98c-0.03-0.19-0.13-0.36-0.28-0.47c-0.15-0.11-0.35-0.16-0.53-0.13c-7.33,1.22-11.77,4.85-11.95,5
	c-0.15,0.13-0.25,0.31-0.26,0.51c-0.01,0.2,0.07,0.39,0.21,0.53c2.06,2.06,2.03,5.43-0.06,7.52c-2.06,2.05-5.4,2.06-7.46,0
	c-0.14-0.14-0.33-0.22-0.53-0.21c-0.2,0.01-0.39,0.1-0.51,0.26c-0.15,0.19-3.79,4.62-5.01,11.95c-0.03,0.19,0.02,0.39,0.14,0.55
	c0.12,0.16,0.3,0.25,0.49,0.28c5.77,0.6,9.85,3.99,9.89,4.03c0.17,0.14,0.39,0.2,0.61,0.15c0.21-0.05,0.4-0.19,0.49-0.39
	c0.16-0.34,0.86-1.52,1.35-2.3l8.97,10.2l-5.42,8.65c-0.11,0.17-0.14,0.38-0.08,0.57c0.06,0.19,0.19,0.36,0.37,0.44l10.53,5.04
	c0.31,0.15,0.68,0.05,0.88-0.22c2.66-3.68,6.02-7.75,7.15-8.38c0.38,1.25,0.13,6.52-0.35,11.03c-0.04,0.34,0.17,0.66,0.5,0.75
	l11.17,3.38c0.07,0.02,0.14,0.03,0.21,0.03c0.13,0,0.26-0.04,0.37-0.1c0.17-0.1,0.29-0.28,0.33-0.48l4.33-23.73
	C67.21,51.09,67.03,50.76,66.71,50.64z M38.14,55.56l1.05,1.19c0.13,0.15,0.31,0.23,0.51,0.24c0.01,0,0.01,0,0.02,0
	c0.19,0,0.37-0.07,0.5-0.21l8.58-8.58l2.68,1.04c-0.86,0.59-1.79,1.59-1.94,3.19c-0.15,1.56-0.93,2.73-1.4,3.3
	c-0.02-0.01-0.04-0.02-0.06-0.03c-0.38-0.15-0.79-0.14-1.16,0.03c-0.37,0.16-0.66,0.46-0.8,0.84l0,0c-0.15,0.38-0.14,0.79,0.03,1.16
	c0.16,0.37,0.46,0.66,0.84,0.8c0.18,0.07,0.37,0.1,0.55,0.1c0.61,0,1.18-0.37,1.42-0.97c0.1-0.25,0.12-0.52,0.08-0.78
	c0.54-0.6,1.73-2.14,1.93-4.33c0.16-1.71,1.73-2.45,2.26-2.64l2.61,1.01c0.26,0.51,0.93,2.11-0.11,3.48
	c-1.33,1.75-1.49,3.7-1.49,4.5c-0.26,0.17-0.47,0.42-0.58,0.72l0,0c-0.15,0.38-0.14,0.79,0.03,1.16s0.46,0.66,0.84,0.8
	c0.18,0.07,0.36,0.1,0.55,0.1c0.21,0,0.42-0.04,0.61-0.13c0.37-0.16,0.66-0.46,0.8-0.84c0.15-0.38,0.14-0.79-0.03-1.16
	c-0.16-0.36-0.44-0.63-0.8-0.79c0.02-0.69,0.2-2.19,1.2-3.51c0.96-1.28,0.95-2.64,0.71-3.66l7.59,2.94l-3.57,19.57l-9.85-2.98
	c1.17-11.32-0.05-11.8-0.51-11.98l-0.1-0.04c-0.48-0.19-1.76-0.69-8.46,8.5l-9.28-4.44L38.14,55.56z M55.14,60.21
	c-0.02,0.04-0.09,0.08-0.13,0.06c-0.04-0.02-0.08-0.09-0.06-0.13c0.01-0.04,0.06-0.06,0.1-0.06c0.01,0,0.02,0,0.03,0.01
	C55.13,60.1,55.16,60.17,55.14,60.21z M47.61,57.16c-0.02,0.05-0.08,0.08-0.13,0.06c-0.04-0.02-0.08-0.09-0.06-0.13
	c0.01-0.04,0.06-0.06,0.1-0.06c0.01,0,0.02,0,0.03,0.01C47.6,57.04,47.63,57.11,47.61,57.16z M54.11,40.88L39.75,55.24l-11.1-12.63
	c-0.13-0.15-0.33-0.24-0.53-0.24c0,0,0,0,0,0c-0.21,0-0.4,0.09-0.53,0.25c-0.28,0.32-1.08,1.65-1.6,2.54
	c-1.38-0.99-4.74-3.09-9.22-3.74c0.99-5.08,3.19-8.63,4.13-9.96c2.62,2.06,6.44,1.88,8.85-0.54c2.45-2.45,2.65-6.29,0.6-8.92
	c1.34-0.94,4.91-3.15,9.99-4.13c0.75,3.99,2.86,7.72,3.77,9.19c-0.9,0.51-2.27,1.35-2.6,1.63c-0.16,0.13-0.25,0.33-0.25,0.53
	c0,0.21,0.09,0.4,0.24,0.54L54.11,40.88z M65.65,51.75l-0.25,1.37l-15.5-6.01l1.06-1.06L65.65,51.75z"/>
</svg>
