<?xml version="1.0" encoding="utf-8"?>
<!-- Generator: Adobe Illustrator 23.0.2, SVG Export Plug-In . SVG Version: 6.00 Build 0)  -->
<svg version="1.1" id="Layer_1" xmlns="http://www.w3.org/2000/svg" xmlns:xlink="http://www.w3.org/1999/xlink" x="0px" y="0px"
	 viewBox="0 0 65.92 13.21" style="enable-background:new 0 0 65.92 13.21;" xml:space="preserve">
<style type="text/css">
	.st0{fill:#FFFFFF;}
	.st1{fill:#F37046;}
</style>
<g>
	<path class="st0" d="M2.52,3.07V5.5h3.81v1.26H2.52v3.45H1.1V1.8h5.64L6.73,3.07H2.52z"/>
	<path class="st0" d="M12.38,4.18c0.5,0.27,0.9,0.65,1.17,1.14s0.42,1.05,0.42,1.69c0,0.63-0.14,1.2-0.42,1.69s-0.67,0.87-1.17,1.15
		s-1.08,0.41-1.73,0.41c-0.66,0-1.24-0.14-1.74-0.41S8.02,9.19,7.74,8.7S7.32,7.64,7.32,7.01c0-0.64,0.14-1.2,0.42-1.69
		s0.67-0.87,1.17-1.14S10,3.77,10.65,3.77C11.3,3.77,11.88,3.9,12.38,4.18z M9.24,5.53C8.88,5.92,8.7,6.41,8.7,7.02
		c0,0.62,0.18,1.12,0.55,1.5s0.83,0.58,1.41,0.58s1.04-0.19,1.4-0.58s0.54-0.89,0.54-1.5c0-0.61-0.18-1.11-0.55-1.49
		s-0.83-0.57-1.4-0.57C10.08,4.96,9.61,5.15,9.24,5.53z"/>
	<path class="st0" d="M19.88,4.18c0.5,0.27,0.9,0.65,1.17,1.14s0.42,1.05,0.42,1.69c0,0.63-0.14,1.2-0.42,1.69s-0.67,0.87-1.17,1.15
		s-1.08,0.41-1.73,0.41c-0.66,0-1.24-0.14-1.74-0.41s-0.9-0.65-1.17-1.15s-0.42-1.05-0.42-1.69c0-0.64,0.14-1.2,0.42-1.69
		s0.67-0.87,1.17-1.14s1.08-0.41,1.74-0.41C18.8,3.77,19.38,3.9,19.88,4.18z M16.74,5.53c-0.37,0.38-0.55,0.88-0.55,1.49
		c0,0.62,0.18,1.12,0.55,1.5s0.83,0.58,1.41,0.58s1.04-0.19,1.4-0.58s0.54-0.89,0.54-1.5c0-0.61-0.18-1.11-0.55-1.49
		s-0.83-0.57-1.4-0.57C17.58,4.96,17.11,5.15,16.74,5.53z"/>
	<path class="st0" d="M29,10.2h-1.38V9.11c-0.23,0.38-0.54,0.66-0.92,0.86s-0.82,0.29-1.33,0.29c-0.61,0-1.14-0.14-1.6-0.41
		s-0.82-0.66-1.07-1.16s-0.38-1.06-0.38-1.71c0-0.63,0.13-1.19,0.38-1.68s0.61-0.87,1.07-1.14s0.99-0.41,1.58-0.41
		c0.51,0,0.96,0.1,1.34,0.3s0.69,0.49,0.93,0.86V1.29H29V10.2z M27.08,8.53c0.36-0.39,0.54-0.89,0.54-1.5
		c0-0.62-0.18-1.12-0.54-1.51s-0.83-0.59-1.41-0.59c-0.57,0-1.04,0.2-1.41,0.59s-0.55,0.9-0.56,1.51c0.01,0.61,0.19,1.11,0.56,1.5
		s0.83,0.58,1.41,0.58C26.24,9.11,26.71,8.92,27.08,8.53z"/>
	<path class="st1" d="M34.44,6.88V4.89h1.32v1.99h1.22v1.26h-1.22v2.06h-1.32V8.14h-4.01V7.08L33.3,1.8h1.37l-2.72,5.08H34.44z"/>
	<path class="st0" d="M38.34,10.2V1.29h1.38v8.91H38.34z"/>
	<path class="st0" d="M43.08,1.39c0.15,0.16,0.23,0.36,0.23,0.6c0,0.24-0.08,0.44-0.23,0.59s-0.35,0.23-0.58,0.23
		c-0.23,0-0.42-0.08-0.57-0.23S41.7,2.23,41.7,1.99c0-0.25,0.08-0.45,0.23-0.6s0.34-0.23,0.57-0.23
		C42.73,1.15,42.93,1.23,43.08,1.39z M41.82,10.2V3.81h1.37v6.39H41.82z"/>
	<path class="st0" d="M46.69,10.2l-2.47-6.39h1.44l1.78,5.03l1.75-5.03h1.38l-2.44,6.39H46.69z"/>
	<path class="st0" d="M56.17,4.62c0.5,0.57,0.75,1.37,0.75,2.4c0,0.11-0.01,0.28-0.02,0.52h-4.83c0.11,0.5,0.35,0.89,0.7,1.17
		s0.78,0.43,1.28,0.43c0.34,0,0.67-0.06,0.98-0.19s0.58-0.31,0.81-0.55l0.73,0.78c-0.32,0.34-0.7,0.61-1.15,0.8
		s-0.94,0.28-1.49,0.28c-0.65,0-1.22-0.14-1.71-0.41s-0.87-0.65-1.15-1.14s-0.41-1.05-0.41-1.68s0.14-1.19,0.41-1.68
		s0.65-0.87,1.15-1.15s1.05-0.42,1.68-0.42C54.92,3.77,55.67,4.05,56.17,4.62z M55.18,5.32c-0.32-0.29-0.74-0.44-1.26-0.44
		c-0.5,0-0.92,0.15-1.25,0.44s-0.54,0.7-0.62,1.21h3.65C55.68,6.02,55.5,5.61,55.18,5.32z"/>
	<path class="st0" d="M61.45,3.93c0.4,0.12,0.74,0.28,1.03,0.47l-0.5,1.02c-0.28-0.18-0.59-0.31-0.92-0.41s-0.64-0.15-0.92-0.15
		c-0.29,0-0.52,0.05-0.68,0.16S59.2,5.28,59.2,5.5s0.1,0.38,0.29,0.49s0.52,0.24,0.98,0.39c0.43,0.13,0.79,0.26,1.08,0.38
		s0.53,0.32,0.73,0.57s0.3,0.59,0.3,1.01c0,0.63-0.23,1.1-0.7,1.42s-1.05,0.48-1.75,0.48c-0.48,0-0.95-0.08-1.41-0.23
		s-0.84-0.37-1.16-0.65l0.49-0.98c0.27,0.24,0.61,0.43,1,0.57s0.77,0.22,1.14,0.22c0.31,0,0.56-0.06,0.76-0.17s0.29-0.28,0.29-0.52
		c0-0.18-0.06-0.32-0.18-0.44s-0.26-0.21-0.43-0.28s-0.41-0.15-0.73-0.25c-0.43-0.13-0.77-0.25-1.04-0.38s-0.5-0.31-0.69-0.55
		s-0.29-0.57-0.29-0.98c0-0.61,0.22-1.07,0.67-1.39s1.01-0.47,1.68-0.47C60.65,3.76,61.05,3.81,61.45,3.93z"/>
	<path class="st1" d="M64.8,8.95c0.14,0.15,0.21,0.33,0.21,0.56c0,0.23-0.07,0.42-0.21,0.57s-0.32,0.23-0.54,0.23
		c-0.21,0-0.39-0.08-0.54-0.23S63.5,9.74,63.5,9.5c0-0.22,0.07-0.41,0.22-0.56s0.32-0.22,0.54-0.22C64.48,8.72,64.66,8.8,64.8,8.95z
		"/>
</g>
</svg>
