<svg enable-background="new 0 0 57.87 13.21" viewBox="0 0 57.87 13.21" xmlns="http://www.w3.org/2000/svg"><g fill="#fff"><path d="m2.52 3.07v2.43h3.81v1.26h-3.81v3.45h-1.42v-8.41h5.64l-.01 1.27z"/><path d="m12.38 4.18c.5.27.9.65 1.17 1.14s.42 1.05.42 1.69c0 .63-.14 1.2-.42 1.69s-.67.87-1.17 1.15-1.08.41-1.73.41c-.66 0-1.24-.14-1.74-.41s-.89-.66-1.17-1.15-.42-1.06-.42-1.69c0-.64.14-1.2.42-1.69s.67-.87 1.17-1.14 1.09-.41 1.74-.41 1.23.13 1.73.41zm-3.14 1.35c-.36.39-.54.88-.54 1.49 0 .62.18 1.12.55 1.5s.83.58 1.41.58 1.04-.19 1.4-.58.54-.89.54-1.5-.18-1.11-.55-1.49-.83-.57-1.4-.57-1.04.19-1.41.57z"/><path d="m19.88 4.18c.5.27.9.65 1.17 1.14s.42 1.05.42 1.69c0 .63-.14 1.2-.42 1.69s-.67.87-1.17 1.15-1.08.41-1.73.41c-.66 0-1.24-.14-1.74-.41s-.9-.65-1.17-1.15-.42-1.05-.42-1.69.14-1.2.42-1.69.67-.87 1.17-1.14 1.08-.41 1.74-.41c.65 0 1.23.13 1.73.41zm-3.14 1.35c-.37.38-.55.88-.55 1.49 0 .62.18 1.12.55 1.5s.83.58 1.41.58 1.04-.19 1.4-.58.54-.89.54-1.5-.18-1.11-.55-1.49-.83-.57-1.4-.57c-.56 0-1.03.19-1.4.57z"/><path d="m29 10.2h-1.38v-1.09c-.23.38-.54.66-.92.86s-.82.29-1.33.29c-.61 0-1.14-.14-1.6-.41s-.82-.66-1.07-1.16-.38-1.06-.38-1.71c0-.63.13-1.19.38-1.68s.61-.87 1.07-1.14.99-.41 1.58-.41c.51 0 .96.1 1.34.3s.69.49.93.86v-3.62h1.38zm-1.92-1.67c.36-.39.54-.89.54-1.5 0-.62-.18-1.12-.54-1.51s-.83-.59-1.41-.59c-.57 0-1.04.2-1.41.59s-.55.9-.56 1.51c.01.61.19 1.11.56 1.5s.83.58 1.41.58c.57 0 1.04-.19 1.41-.58z"/></g><path d="m34.44 6.88v-1.99h1.32v1.99h1.22v1.26h-1.22v2.06h-1.32v-2.06h-4.01v-1.06l2.87-5.28h1.37l-2.72 5.08z" fill="#f37046"/><path d="m38.34 10.2v-8.91h1.38v8.91z" fill="#fff"/><path d="m43.08 1.39c.15.16.23.36.23.6s-.08.44-.23.59-.35.23-.58.23-.42-.08-.57-.23-.23-.35-.23-.59c0-.25.08-.45.23-.6s.34-.23.57-.23c.23-.01.43.07.58.23zm-1.26 8.81v-6.39h1.37v6.39z" fill="#fff"/><path d="m47.1 2.65c-.16.14-.25.36-.25.64v.76h1.66v1.04h-1.66v5.11h-1.37v-5.11h-.84v-1.04h.84v-.62c0-.47.1-.88.31-1.21s.48-.58.81-.74.7-.25 1.08-.25c.56 0 1.04.15 1.44.45l-.52 1.06c-.27-.2-.57-.3-.88-.3-.25 0-.45.07-.62.21z" fill="#fff"/><path d="m54.11 4.62c.5.57.75 1.37.75 2.4 0 .11-.01.28-.02.52h-4.83c.11.5.35.89.7 1.17s.78.43 1.28.43c.34 0 .67-.06.98-.19s.58-.31.81-.55l.73.78c-.32.34-.7.61-1.15.8s-.94.28-1.49.28c-.65 0-1.22-.14-1.71-.41s-.86-.66-1.13-1.15-.41-1.05-.41-1.68.14-1.19.41-1.68.65-.87 1.15-1.15 1.05-.42 1.68-.42c1 0 1.75.28 2.25.85zm-.99.7c-.32-.29-.74-.44-1.26-.44-.5 0-.92.15-1.25.44s-.54.7-.62 1.21h3.65c-.03-.51-.2-.92-.52-1.21z" fill="#fff"/><path d="m57.1 8.95c.14.15.21.33.21.56s-.07.42-.21.57-.32.23-.54.23c-.21 0-.39-.08-.54-.23s-.22-.34-.22-.58c0-.22.07-.41.22-.56s.32-.22.54-.22.4.08.54.23z" fill="#f37046"/></svg>