<?xml version="1.0" encoding="utf-8"?>
<!-- Generator: Adobe Illustrator 23.0.2, SVG Export Plug-In . SVG Version: 6.00 Build 0)  -->
<svg version="1.1" id="Layer_1" xmlns="http://www.w3.org/2000/svg" xmlns:xlink="http://www.w3.org/1999/xlink" x="0px" y="0px"
	 viewBox="0 0 57.87 13.21" style="enable-background:new 0 0 57.87 13.21;" xml:space="preserve">
<style type="text/css">
	.st0{fill:#FFFFFF;}
	.st1{fill:#F37046;}
</style>
<g>
	<path class="st0" d="M2.52,3.07V5.5h3.81v1.26H2.52v3.45H1.1V1.8h5.64L6.73,3.07H2.52z"/>
	<path class="st0" d="M12.38,4.18c0.5,0.27,0.9,0.65,1.17,1.14s0.42,1.05,0.42,1.69c0,0.63-0.14,1.2-0.42,1.69s-0.67,0.87-1.17,1.15
		s-1.08,0.41-1.73,0.41c-0.66,0-1.24-0.14-1.74-0.41S8.02,9.19,7.74,8.7S7.32,7.64,7.32,7.01c0-0.64,0.14-1.2,0.42-1.69
		s0.67-0.87,1.17-1.14S10,3.77,10.65,3.77C11.3,3.77,11.88,3.9,12.38,4.18z M9.24,5.53C8.88,5.92,8.7,6.41,8.7,7.02
		c0,0.62,0.18,1.12,0.55,1.5s0.83,0.58,1.41,0.58s1.04-0.19,1.4-0.58s0.54-0.89,0.54-1.5c0-0.61-0.18-1.11-0.55-1.49
		s-0.83-0.57-1.4-0.57C10.08,4.96,9.61,5.15,9.24,5.53z"/>
	<path class="st0" d="M19.88,4.18c0.5,0.27,0.9,0.65,1.17,1.14s0.42,1.05,0.42,1.69c0,0.63-0.14,1.2-0.42,1.69s-0.67,0.87-1.17,1.15
		s-1.08,0.41-1.73,0.41c-0.66,0-1.24-0.14-1.74-0.41s-0.9-0.65-1.17-1.15s-0.42-1.05-0.42-1.69c0-0.64,0.14-1.2,0.42-1.69
		s0.67-0.87,1.17-1.14s1.08-0.41,1.74-0.41C18.8,3.77,19.38,3.9,19.88,4.18z M16.74,5.53c-0.37,0.38-0.55,0.88-0.55,1.49
		c0,0.62,0.18,1.12,0.55,1.5s0.83,0.58,1.41,0.58s1.04-0.19,1.4-0.58s0.54-0.89,0.54-1.5c0-0.61-0.18-1.11-0.55-1.49
		s-0.83-0.57-1.4-0.57C17.58,4.96,17.11,5.15,16.74,5.53z"/>
	<path class="st0" d="M29,10.2h-1.38V9.11c-0.23,0.38-0.54,0.66-0.92,0.86s-0.82,0.29-1.33,0.29c-0.61,0-1.14-0.14-1.6-0.41
		s-0.82-0.66-1.07-1.16s-0.38-1.06-0.38-1.71c0-0.63,0.13-1.19,0.38-1.68s0.61-0.87,1.07-1.14s0.99-0.41,1.58-0.41
		c0.51,0,0.96,0.1,1.34,0.3s0.69,0.49,0.93,0.86V1.29H29V10.2z M27.08,8.53c0.36-0.39,0.54-0.89,0.54-1.5
		c0-0.62-0.18-1.12-0.54-1.51s-0.83-0.59-1.41-0.59c-0.57,0-1.04,0.2-1.41,0.59s-0.55,0.9-0.56,1.51c0.01,0.61,0.19,1.11,0.56,1.5
		s0.83,0.58,1.41,0.58C26.24,9.11,26.71,8.92,27.08,8.53z"/>
	<path class="st1" d="M34.44,6.88V4.89h1.32v1.99h1.22v1.26h-1.22v2.06h-1.32V8.14h-4.01V7.08L33.3,1.8h1.37l-2.72,5.08H34.44z"/>
	<path class="st0" d="M38.34,10.2V1.29h1.38v8.91H38.34z"/>
	<path class="st0" d="M43.08,1.39c0.15,0.16,0.23,0.36,0.23,0.6c0,0.24-0.08,0.44-0.23,0.59s-0.35,0.23-0.58,0.23
		c-0.23,0-0.42-0.08-0.57-0.23S41.7,2.23,41.7,1.99c0-0.25,0.08-0.45,0.23-0.6s0.34-0.23,0.57-0.23
		C42.73,1.15,42.93,1.23,43.08,1.39z M41.82,10.2V3.81h1.37v6.39H41.82z"/>
	<path class="st0" d="M47.1,2.65c-0.16,0.14-0.25,0.36-0.25,0.64v0.76h1.66v1.04h-1.66v5.11h-1.37V5.09h-0.84V4.05h0.84V3.43
		c0-0.47,0.1-0.88,0.31-1.21s0.48-0.58,0.81-0.74s0.7-0.25,1.08-0.25c0.56,0,1.04,0.15,1.44,0.45L48.6,2.74
		c-0.27-0.2-0.57-0.3-0.88-0.3C47.47,2.44,47.27,2.51,47.1,2.65z"/>
	<path class="st0" d="M54.11,4.62c0.5,0.57,0.75,1.37,0.75,2.4c0,0.11-0.01,0.28-0.02,0.52h-4.83c0.11,0.5,0.35,0.89,0.7,1.17
		s0.78,0.43,1.28,0.43c0.34,0,0.67-0.06,0.98-0.19s0.58-0.31,0.81-0.55l0.73,0.78c-0.32,0.34-0.7,0.61-1.15,0.8
		s-0.94,0.28-1.49,0.28c-0.65,0-1.22-0.14-1.71-0.41S49.3,9.19,49.03,8.7s-0.41-1.05-0.41-1.68s0.14-1.19,0.41-1.68
		s0.65-0.87,1.15-1.15s1.05-0.42,1.68-0.42C52.86,3.77,53.61,4.05,54.11,4.62z M53.12,5.32c-0.32-0.29-0.74-0.44-1.26-0.44
		c-0.5,0-0.92,0.15-1.25,0.44s-0.54,0.7-0.62,1.21h3.65C53.61,6.02,53.44,5.61,53.12,5.32z"/>
	<path class="st1" d="M57.1,8.95c0.14,0.15,0.21,0.33,0.21,0.56c0,0.23-0.07,0.42-0.21,0.57s-0.32,0.23-0.54,0.23
		c-0.21,0-0.39-0.08-0.54-0.23S55.8,9.74,55.8,9.5c0-0.22,0.07-0.41,0.22-0.56s0.32-0.22,0.54-0.22C56.78,8.72,56.96,8.8,57.1,8.95z
		"/>
</g>
</svg>
