<?xml version="1.0" encoding="utf-8"?>
<!-- Generator: Adobe Illustrator 23.0.1, SVG Export Plug-In . SVG Version: 6.00 Build 0)  -->
<svg version="1.1" id="Layer_1" xmlns="http://www.w3.org/2000/svg" xmlns:xlink="http://www.w3.org/1999/xlink" x="0px" y="0px"
	 viewBox="0 0 92.5 92.5" style="enable-background:new 0 0 92.5 92.5;" xml:space="preserve">
<style type="text/css">
	.st0{fill:#F79420;}
	.st1{fill:none;stroke:#F79420;stroke-width:3;stroke-miterlimit:10;}
	.st2{fill:#FFFFFF;}
</style>
<circle id="XMLID_63_" class="st0" cx="46.25" cy="46.25" r="40.5"/>
<circle id="XMLID_222_" class="st1" cx="46.25" cy="46.25" r="44.75"/>
<g id="XMLID_89_">
	<path id="XMLID_75_" class="st2" d="M34.74,40.64c-0.06-0.19-0.19-0.45-0.26-0.71c-0.71-1.94-2-5.49-5.29-5.49h-5.03
		c-3.29,0-4.58,3.55-5.29,5.49c-0.06,0.26-0.19,0.52-0.26,0.71c-0.71,1.68-1.61,6.2-1.68,6.71c-0.19,1.03,0.45,2,1.48,2.19
		c0.13,0,0.26,0.06,0.39,0.06c0.9,0,1.68-0.65,1.87-1.48c0.32-1.81,1.03-4.97,1.48-6c0.06-0.19,0.19-0.52,0.32-0.77l0.13,7.29
		l-2.19,17.3c-0.13,1.23,0.71,2.32,1.94,2.45c1.23,0.13,2.32-0.71,2.45-1.94l1.81-15.75l1.81,15.75c0.13,1.1,1.1,1.94,2.19,1.94
		c0.06,0,0.19,0,0.26,0c1.23-0.13,2.07-1.23,1.94-2.45l-2-17.36l0.13-7.29c0.13,0.32,0.19,0.58,0.32,0.77c0.45,1.03,1.16,4.2,1.48,6
		c0.19,1.03,1.16,1.68,2.19,1.48c1.03-0.19,1.68-1.16,1.48-2.19C36.29,46.83,35.45,42.31,34.74,40.64z"/>
	<circle id="XMLID_74_" class="st2" cx="26.61" cy="28.95" r="4.39"/>
	<path id="XMLID_72_" class="st2" d="M78.05,47.35c-0.13-0.52-0.97-5.03-1.68-6.71c-0.06-0.19-0.19-0.45-0.26-0.71
		c-0.71-1.94-2-5.49-5.29-5.49h-5.03c-3.29,0-4.58,3.55-5.29,5.49c-0.06,0.26-0.19,0.52-0.26,0.71c-0.71,1.68-1.61,6.2-1.68,6.71
		c-0.19,1.03,0.45,2,1.48,2.19c1.03,0.19,2-0.45,2.19-1.48c0.32-1.81,1.03-4.97,1.48-6c0.06-0.19,0.19-0.52,0.32-0.77l0.13,7.29
		l-2,17.36c-0.13,1.23,0.71,2.32,1.94,2.45c0.06,0,0.19,0,0.26,0c1.1,0,2.07-0.84,2.19-1.94l1.81-15.75l1.81,15.75
		c0.13,1.23,1.23,2.07,2.45,1.94c1.23-0.13,2.07-1.23,1.94-2.45l-2-17.36l0.06-7.29c0.13,0.32,0.19,0.58,0.32,0.77
		c0.45,1.03,1.16,4.2,1.48,6c0.19,0.9,0.97,1.48,1.87,1.48c0.13,0,0.26,0,0.39-0.06C77.6,49.35,78.31,48.38,78.05,47.35z"/>
	<circle id="XMLID_71_" class="st2" cx="68.3" cy="28.95" r="4.39"/>
	<circle id="XMLID_69_" class="st2" cx="46.49" cy="28.95" r="4.39"/>
	<path id="XMLID_66_" class="st2" d="M54.56,40.64c-0.06-0.19-0.19-0.45-0.26-0.71c-0.71-1.94-2-5.49-5.29-5.49h-5.1
		c-2.65,0-4-0.84-4.39-1.61c-0.26-0.65-0.84-4.2-1.23-7.1c-0.13-1.03-1.1-1.74-2.13-1.61c-1.03,0.13-1.74,1.1-1.61,2.13
		c0.32,2.58,0.97,7.1,1.61,8.33c0.52,0.97,2,3.1,5.94,3.61l0.19,10.39l-2,17.36c-0.13,1.23,0.71,2.32,1.94,2.45
		c0.06,0,0.19,0,0.26,0c1.1,0,2.07-0.84,2.19-1.94l1.81-15.75l1.81,15.75c0.13,1.23,1.23,2.07,2.45,1.94
		c1.23-0.13,2.07-1.23,1.94-2.45l-2-17.36l0.13-7.29c0.13,0.32,0.19,0.58,0.32,0.77c0.45,1.03,1.16,4.2,1.48,6
		c0.19,0.9,0.97,1.48,1.87,1.48c0.13,0,0.26,0,0.39-0.06c1.03-0.19,1.68-1.16,1.48-2.19C56.17,46.83,55.27,42.31,54.56,40.64z"/>
</g>
</svg>
