<svg enable-background="new 0 0 92.5 92.5" viewBox="0 0 92.5 92.5" xmlns="http://www.w3.org/2000/svg"><circle cx="46.25" cy="46.25" fill="#f79420" r="40.5"/><circle cx="46.25" cy="46.25" fill="none" r="44.75" stroke="#f79420" stroke-miterlimit="10" stroke-width="3"/><g fill="#fff"><path d="m34.74 40.64c-.06-.19-.19-.45-.26-.71-.71-1.94-2-5.49-5.29-5.49h-5.03c-3.29 0-4.58 3.55-5.29 5.49-.06.26-.19.52-.26.71-.71 1.68-1.61 6.2-1.68 6.71-.19 1.03.45 2 1.48 2.19.13 0 .26.06.39.06.9 0 1.68-.65 1.87-1.48.32-1.81 1.03-4.97 1.48-6 .06-.19.19-.52.32-.77l.13 7.29-2.19 17.3c-.13 1.23.71 2.32 1.94 2.45s2.32-.71 2.45-1.94l1.81-15.75 1.81 15.75c.13 1.1 1.1 1.94 2.19 1.94h.26c1.23-.13 2.07-1.23 1.94-2.45l-2-17.36.13-7.29c.13.32.19.58.32.77.45 1.03 1.16 4.2 1.48 6 .19 1.03 1.16 1.68 2.19 1.48 1.03-.19 1.68-1.16 1.48-2.19-.12-.52-.96-5.04-1.67-6.71z"/><circle cx="26.61" cy="28.95" r="4.39"/><path d="m78.05 47.35c-.13-.52-.97-5.03-1.68-6.71-.06-.19-.19-.45-.26-.71-.71-1.94-2-5.49-5.29-5.49h-5.03c-3.29 0-4.58 3.55-5.29 5.49-.06.26-.19.52-.26.71-.71 1.68-1.61 6.2-1.68 6.71-.19 1.03.45 2 1.48 2.19s2-.45 2.19-1.48c.32-1.81 1.03-4.97 1.48-6 .06-.19.19-.52.32-.77l.13 7.29-2 17.36c-.13 1.23.71 2.32 1.94 2.45h.26c1.1 0 2.07-.84 2.19-1.94l1.81-15.75 1.81 15.75c.13 1.23 1.23 2.07 2.45 1.94 1.23-.13 2.07-1.23 1.94-2.45l-2-17.36.06-7.29c.13.32.19.58.32.77.45 1.03 1.16 4.2 1.48 6 .19.9.97 1.48 1.87 1.48.13 0 .26 0 .39-.06.92-.13 1.63-1.1 1.37-2.13z"/><circle cx="68.3" cy="28.95" r="4.39"/><circle cx="46.49" cy="28.95" r="4.39"/><path d="m54.56 40.64c-.06-.19-.19-.45-.26-.71-.71-1.94-2-5.49-5.29-5.49h-5.1c-2.65 0-4-.84-4.39-1.61-.26-.65-.84-4.2-1.23-7.1-.13-1.03-1.1-1.74-2.13-1.61s-1.74 1.1-1.61 2.13c.32 2.58.97 7.1 1.61 8.33.52.97 2 3.1 5.94 3.61l.19 10.39-2 17.36c-.13 1.23.71 2.32 1.94 2.45h.26c1.1 0 2.07-.84 2.19-1.94l1.81-15.75 1.81 15.75c.13 1.23 1.23 2.07 2.45 1.94 1.23-.13 2.07-1.23 1.94-2.45l-2-17.36.13-7.29c.13.32.19.58.32.77.45 1.03 1.16 4.2 1.48 6 .19.9.97 1.48 1.87 1.48.13 0 .26 0 .39-.06 1.03-.19 1.68-1.16 1.48-2.19-.19-.46-1.09-4.98-1.8-6.65z"/></g></svg>